<svg xmlns="http://www.w3.org/2000/svg" version="1.1" xmlns:xlink="http://www.w3.org/1999/xlink" xmlns:svgjs="http://svgjs.dev/svgjs" width="1440" height="560" preserveAspectRatio="none" viewBox="0 0 1440 560"><g mask="url(&quot;#SvgjsMask2275&quot;)" fill="none"><rect width="1440" height="560" x="0" y="0" fill="rgba(232, 238, 233, 1)"></rect><use xlink:href="#SvgjsSymbol2282" x="0" y="0"></use><use xlink:href="#SvgjsSymbol2282" x="720" y="0"></use></g><defs><mask id="SvgjsMask2275"><rect width="1440" height="560" fill="#ffffff"></rect></mask><path d="M-1 0 a1 1 0 1 0 2 0 a1 1 0 1 0 -2 0z" id="SvgjsPath2278"></path><path d="M-3 0 a3 3 0 1 0 6 0 a3 3 0 1 0 -6 0z" id="SvgjsPath2277"></path><path d="M-5 0 a5 5 0 1 0 10 0 a5 5 0 1 0 -10 0z" id="SvgjsPath2276"></path><path d="M2 -2 L-2 2z" id="SvgjsPath2280"></path><path d="M6 -6 L-6 6z" id="SvgjsPath2279"></path><path d="M30 -30 L-30 30z" id="SvgjsPath2281"></path></defs><symbol id="SvgjsSymbol2282"><use xlink:href="#SvgjsPath2276" x="30" y="30" stroke="rgba(84, 167, 255, 1)"></use><use xlink:href="#SvgjsPath2277" x="30" y="90" stroke="rgba(215, 7, 7, 1)"></use><use xlink:href="#SvgjsPath2278" x="30" y="150" stroke="rgba(61, 185, 19, 1)"></use><use xlink:href="#SvgjsPath2276" x="30" y="210" stroke="rgba(84, 167, 255, 1)"></use><use xlink:href="#SvgjsPath2276" x="30" y="270" stroke="rgba(215, 7, 7, 1)"></use><use xlink:href="#SvgjsPath2277" x="30" y="330" stroke="rgba(84, 167, 255, 1)"></use><use xlink:href="#SvgjsPath2276" x="30" y="390" stroke="rgba(61, 185, 19, 1)"></use><use xlink:href="#SvgjsPath2279" x="30" y="450" stroke="rgba(61, 185, 19, 1)"></use><use xlink:href="#SvgjsPath2279" x="30" y="510" stroke="rgba(61, 185, 19, 1)"></use><use xlink:href="#SvgjsPath2280" x="30" y="570" stroke="rgba(215, 7, 7, 1)"></use><use xlink:href="#SvgjsPath2279" x="90" y="30" stroke="rgba(245, 255, 0, 1)"></use><use xlink:href="#SvgjsPath2281" x="90" y="90" stroke="rgba(84, 167, 255, 1)" stroke-width="3"></use><use xlink:href="#SvgjsPath2278" x="90" y="150" stroke="rgba(61, 185, 19, 1)"></use><use xlink:href="#SvgjsPath2279" x="90" y="210" stroke="rgba(84, 167, 255, 1)"></use><use xlink:href="#SvgjsPath2278" x="90" y="270" stroke="rgba(215, 7, 7, 1)"></use><use xlink:href="#SvgjsPath2279" x="90" y="330" stroke="rgba(84, 167, 255, 1)"></use><use xlink:href="#SvgjsPath2280" x="90" y="390" stroke="rgba(61, 185, 19, 1)"></use><use xlink:href="#SvgjsPath2279" x="90" y="450" stroke="rgba(215, 7, 7, 1)"></use><use xlink:href="#SvgjsPath2276" x="90" y="510" stroke="rgba(245, 255, 0, 1)"></use><use xlink:href="#SvgjsPath2281" x="90" y="570" stroke="rgba(61, 185, 19, 1)" stroke-width="3"></use><use xlink:href="#SvgjsPath2276" x="150" y="30" stroke="rgba(245, 255, 0, 1)"></use><use xlink:href="#SvgjsPath2279" x="150" y="90" stroke="rgba(61, 185, 19, 1)"></use><use xlink:href="#SvgjsPath2279" x="150" y="150" stroke="rgba(245, 255, 0, 1)"></use><use xlink:href="#SvgjsPath2276" x="150" y="210" stroke="rgba(61, 185, 19, 1)"></use><use xlink:href="#SvgjsPath2276" x="150" y="270" stroke="rgba(245, 255, 0, 1)"></use><use xlink:href="#SvgjsPath2279" x="150" y="330" stroke="rgba(84, 167, 255, 1)"></use><use xlink:href="#SvgjsPath2279" x="150" y="390" stroke="rgba(61, 185, 19, 1)"></use><use xlink:href="#SvgjsPath2276" x="150" y="450" stroke="rgba(61, 185, 19, 1)"></use><use xlink:href="#SvgjsPath2280" x="150" y="510" stroke="rgba(215, 7, 7, 1)"></use><use xlink:href="#SvgjsPath2278" x="150" y="570" stroke="rgba(245, 255, 0, 1)"></use><use xlink:href="#SvgjsPath2278" x="210" y="30" stroke="rgba(215, 7, 7, 1)"></use><use xlink:href="#SvgjsPath2279" x="210" y="90" stroke="rgba(215, 7, 7, 1)"></use><use xlink:href="#SvgjsPath2278" x="210" y="150" stroke="rgba(61, 185, 19, 1)"></use><use xlink:href="#SvgjsPath2279" x="210" y="210" stroke="rgba(61, 185, 19, 1)"></use><use xlink:href="#SvgjsPath2279" x="210" y="270" stroke="rgba(84, 167, 255, 1)"></use><use xlink:href="#SvgjsPath2278" x="210" y="330" stroke="rgba(215, 7, 7, 1)"></use><use xlink:href="#SvgjsPath2276" x="210" y="390" stroke="rgba(84, 167, 255, 1)"></use><use xlink:href="#SvgjsPath2278" x="210" y="450" stroke="rgba(245, 255, 0, 1)"></use><use xlink:href="#SvgjsPath2276" x="210" y="510" stroke="rgba(61, 185, 19, 1)"></use><use xlink:href="#SvgjsPath2280" x="210" y="570" stroke="rgba(215, 7, 7, 1)"></use><use xlink:href="#SvgjsPath2278" x="270" y="30" stroke="rgba(61, 185, 19, 1)"></use><use xlink:href="#SvgjsPath2276" x="270" y="90" stroke="rgba(245, 255, 0, 1)"></use><use xlink:href="#SvgjsPath2277" x="270" y="150" stroke="rgba(245, 255, 0, 1)"></use><use xlink:href="#SvgjsPath2276" x="270" y="210" stroke="rgba(84, 167, 255, 1)"></use><use xlink:href="#SvgjsPath2276" x="270" y="270" stroke="rgba(84, 167, 255, 1)"></use><use xlink:href="#SvgjsPath2276" x="270" y="330" stroke="rgba(245, 255, 0, 1)"></use><use xlink:href="#SvgjsPath2279" x="270" y="390" stroke="rgba(215, 7, 7, 1)"></use><use xlink:href="#SvgjsPath2276" x="270" y="450" stroke="rgba(215, 7, 7, 1)"></use><use xlink:href="#SvgjsPath2281" x="270" y="510" stroke="rgba(215, 7, 7, 1)" stroke-width="3"></use><use xlink:href="#SvgjsPath2279" x="270" y="570" stroke="rgba(245, 255, 0, 1)"></use><use xlink:href="#SvgjsPath2279" x="330" y="30" stroke="rgba(84, 167, 255, 1)"></use><use xlink:href="#SvgjsPath2276" x="330" y="90" stroke="rgba(84, 167, 255, 1)"></use><use xlink:href="#SvgjsPath2280" x="330" y="150" stroke="rgba(245, 255, 0, 1)"></use><use xlink:href="#SvgjsPath2280" x="330" y="210" stroke="rgba(215, 7, 7, 1)"></use><use xlink:href="#SvgjsPath2279" x="330" y="270" stroke="rgba(61, 185, 19, 1)"></use><use xlink:href="#SvgjsPath2276" x="330" y="330" stroke="rgba(84, 167, 255, 1)"></use><use xlink:href="#SvgjsPath2281" x="330" y="390" stroke="rgba(61, 185, 19, 1)" stroke-width="3"></use><use xlink:href="#SvgjsPath2279" x="330" y="450" stroke="rgba(61, 185, 19, 1)"></use><use xlink:href="#SvgjsPath2277" x="330" y="510" stroke="rgba(215, 7, 7, 1)"></use><use xlink:href="#SvgjsPath2279" x="330" y="570" stroke="rgba(215, 7, 7, 1)"></use><use xlink:href="#SvgjsPath2280" x="390" y="30" stroke="rgba(215, 7, 7, 1)"></use><use xlink:href="#SvgjsPath2276" x="390" y="90" stroke="rgba(61, 185, 19, 1)"></use><use xlink:href="#SvgjsPath2279" x="390" y="150" stroke="rgba(215, 7, 7, 1)"></use><use xlink:href="#SvgjsPath2277" x="390" y="210" stroke="rgba(84, 167, 255, 1)"></use><use xlink:href="#SvgjsPath2280" x="390" y="270" stroke="rgba(245, 255, 0, 1)"></use><use xlink:href="#SvgjsPath2276" x="390" y="330" stroke="rgba(215, 7, 7, 1)"></use><use xlink:href="#SvgjsPath2276" x="390" y="390" stroke="rgba(84, 167, 255, 1)"></use><use xlink:href="#SvgjsPath2276" x="390" y="450" stroke="rgba(61, 185, 19, 1)"></use><use xlink:href="#SvgjsPath2276" x="390" y="510" stroke="rgba(61, 185, 19, 1)"></use><use xlink:href="#SvgjsPath2276" x="390" y="570" stroke="rgba(245, 255, 0, 1)"></use><use xlink:href="#SvgjsPath2279" x="450" y="30" stroke="rgba(245, 255, 0, 1)"></use><use xlink:href="#SvgjsPath2276" x="450" y="90" stroke="rgba(245, 255, 0, 1)"></use><use xlink:href="#SvgjsPath2280" x="450" y="150" stroke="rgba(84, 167, 255, 1)"></use><use xlink:href="#SvgjsPath2279" x="450" y="210" stroke="rgba(215, 7, 7, 1)"></use><use xlink:href="#SvgjsPath2280" x="450" y="270" stroke="rgba(84, 167, 255, 1)"></use><use xlink:href="#SvgjsPath2276" x="450" y="330" stroke="rgba(61, 185, 19, 1)"></use><use xlink:href="#SvgjsPath2279" x="450" y="390" stroke="rgba(215, 7, 7, 1)"></use><use xlink:href="#SvgjsPath2279" x="450" y="450" stroke="rgba(215, 7, 7, 1)"></use><use xlink:href="#SvgjsPath2279" x="450" y="510" stroke="rgba(84, 167, 255, 1)"></use><use xlink:href="#SvgjsPath2276" x="450" y="570" stroke="rgba(84, 167, 255, 1)"></use><use xlink:href="#SvgjsPath2280" x="510" y="30" stroke="rgba(61, 185, 19, 1)"></use><use xlink:href="#SvgjsPath2279" x="510" y="90" stroke="rgba(61, 185, 19, 1)"></use><use xlink:href="#SvgjsPath2276" x="510" y="150" stroke="rgba(245, 255, 0, 1)"></use><use xlink:href="#SvgjsPath2276" x="510" y="210" stroke="rgba(61, 185, 19, 1)"></use><use xlink:href="#SvgjsPath2276" x="510" y="270" stroke="rgba(245, 255, 0, 1)"></use><use xlink:href="#SvgjsPath2277" x="510" y="330" stroke="rgba(215, 7, 7, 1)"></use><use xlink:href="#SvgjsPath2276" x="510" y="390" stroke="rgba(84, 167, 255, 1)"></use><use xlink:href="#SvgjsPath2280" x="510" y="450" stroke="rgba(84, 167, 255, 1)"></use><use xlink:href="#SvgjsPath2279" x="510" y="510" stroke="rgba(245, 255, 0, 1)"></use><use xlink:href="#SvgjsPath2279" x="510" y="570" stroke="rgba(245, 255, 0, 1)"></use><use xlink:href="#SvgjsPath2276" x="570" y="30" stroke="rgba(245, 255, 0, 1)"></use><use xlink:href="#SvgjsPath2279" x="570" y="90" stroke="rgba(61, 185, 19, 1)"></use><use xlink:href="#SvgjsPath2279" x="570" y="150" stroke="rgba(84, 167, 255, 1)"></use><use xlink:href="#SvgjsPath2280" x="570" y="210" stroke="rgba(215, 7, 7, 1)"></use><use xlink:href="#SvgjsPath2276" x="570" y="270" stroke="rgba(61, 185, 19, 1)"></use><use xlink:href="#SvgjsPath2280" x="570" y="330" stroke="rgba(215, 7, 7, 1)"></use><use xlink:href="#SvgjsPath2279" x="570" y="390" stroke="rgba(245, 255, 0, 1)"></use><use xlink:href="#SvgjsPath2276" x="570" y="450" stroke="rgba(215, 7, 7, 1)"></use><use xlink:href="#SvgjsPath2276" x="570" y="510" stroke="rgba(215, 7, 7, 1)"></use><use xlink:href="#SvgjsPath2277" x="570" y="570" stroke="rgba(61, 185, 19, 1)"></use><use xlink:href="#SvgjsPath2279" x="630" y="30" stroke="rgba(84, 167, 255, 1)"></use><use xlink:href="#SvgjsPath2279" x="630" y="90" stroke="rgba(245, 255, 0, 1)"></use><use xlink:href="#SvgjsPath2280" x="630" y="150" stroke="rgba(84, 167, 255, 1)"></use><use xlink:href="#SvgjsPath2278" x="630" y="210" stroke="rgba(245, 255, 0, 1)"></use><use xlink:href="#SvgjsPath2279" x="630" y="270" stroke="rgba(215, 7, 7, 1)"></use><use xlink:href="#SvgjsPath2279" x="630" y="330" stroke="rgba(84, 167, 255, 1)"></use><use xlink:href="#SvgjsPath2279" x="630" y="390" stroke="rgba(245, 255, 0, 1)"></use><use xlink:href="#SvgjsPath2280" x="630" y="450" stroke="rgba(61, 185, 19, 1)"></use><use xlink:href="#SvgjsPath2279" x="630" y="510" stroke="rgba(215, 7, 7, 1)"></use><use xlink:href="#SvgjsPath2279" x="630" y="570" stroke="rgba(245, 255, 0, 1)"></use><use xlink:href="#SvgjsPath2279" x="690" y="30" stroke="rgba(245, 255, 0, 1)"></use><use xlink:href="#SvgjsPath2276" x="690" y="90" stroke="rgba(61, 185, 19, 1)"></use><use xlink:href="#SvgjsPath2277" x="690" y="150" stroke="rgba(61, 185, 19, 1)"></use><use xlink:href="#SvgjsPath2277" x="690" y="210" stroke="rgba(84, 167, 255, 1)"></use><use xlink:href="#SvgjsPath2276" x="690" y="270" stroke="rgba(61, 185, 19, 1)"></use><use xlink:href="#SvgjsPath2277" x="690" y="330" stroke="rgba(84, 167, 255, 1)"></use><use xlink:href="#SvgjsPath2279" x="690" y="390" stroke="rgba(61, 185, 19, 1)"></use><use xlink:href="#SvgjsPath2279" x="690" y="450" stroke="rgba(84, 167, 255, 1)"></use><use xlink:href="#SvgjsPath2279" x="690" y="510" stroke="rgba(84, 167, 255, 1)"></use><use xlink:href="#SvgjsPath2280" x="690" y="570" stroke="rgba(215, 7, 7, 1)"></use></symbol></svg>